<?xml version="1.0" encoding="utf-8"?>
<!-- Generator: Adobe Illustrator 27.0.1, SVG Export Plug-In . SVG Version: 6.00 Build 0)  -->
<svg version="1.1" id="Laag_1" xmlns="http://www.w3.org/2000/svg" xmlns:xlink="http://www.w3.org/1999/xlink" x="0px" y="0px"
	 viewBox="0 0 281.4 144.1" style="enable-background:new 0 0 281.4 144.1;" xml:space="preserve">
<style type="text/css">
	.st0{display:none;}
	.st1{display:inline;fill:#FFFFFF;}
	.st2{fill:#44C8F5;}
</style>
<g class="st0">
	<path class="st1" d="M-551,100.9c-0.1-0.2-0.1-0.4-0.1-0.5c0-0.3,0.2-0.6,0.6-0.6c0.3,0,0.6,0.1,0.7,0.7l1.7,5.5l0,0l1.7-5.3
		c0.2-0.6,0.3-0.9,0.8-0.9s0.6,0.3,0.8,0.9l1.7,5.3l0,0l1.7-5.5c0.2-0.6,0.5-0.7,0.7-0.7c0.5,0,0.6,0.3,0.6,0.6c0,0.1,0,0.3-0.1,0.5
		l-2.2,6.4c-0.2,0.5-0.4,0.7-0.8,0.7c-0.4,0-0.6-0.2-0.8-0.7l-1.7-5.4l0,0l-1.7,5.4c-0.2,0.5-0.4,0.7-0.8,0.7
		c-0.4,0-0.6-0.2-0.8-0.7L-551,100.9z"/>
	<path class="st1" d="M-538.2,104.4c0,1.4,0.9,2.4,2.4,2.4c1.8,0,2.2-1.1,2.7-1.1c0.2,0,0.5,0.2,0.5,0.6c0,0.6-1.6,1.6-3.2,1.6
		c-2.6,0-3.7-2-3.7-4.1c0-2.2,1.4-4.1,3.6-4.1c2.2,0,3.5,2,3.5,3.9c0,0.5-0.2,0.7-0.7,0.7L-538.2,104.4L-538.2,104.4z M-533.8,103.4
		c0-1.1-0.7-2.5-2.1-2.5c-1.6-0.1-2.2,1.3-2.3,2.5H-533.8z"/>
	<path class="st1" d="M-522.1,106.9L-522.1,106.9c-0.4,0.7-1.1,1.1-2.2,1.1c-2.2,0-3.4-2-3.4-4.1s1.3-4.1,3.4-4.1
		c1.1,0,1.8,0.6,2.1,1.1l0,0V97c0-0.4,0.3-0.7,0.7-0.7s0.7,0.3,0.7,0.7v10.3c0,0.4-0.3,0.7-0.7,0.7s-0.7-0.3-0.7-0.7v-0.4H-522.1z
		 M-524.2,100.9c-1.6,0-2.2,1.6-2.2,3s0.6,3,2.2,3s2.2-1.6,2.2-3S-522.6,100.9-524.2,100.9z"/>
	<path class="st1" d="M-518.2,104.4c0,1.4,0.9,2.4,2.4,2.4c1.8,0,2.2-1.1,2.7-1.1c0.2,0,0.5,0.2,0.5,0.6c0,0.6-1.6,1.6-3.2,1.6
		c-2.6,0-3.7-2-3.7-4.1c0-2.2,1.4-4.1,3.6-4.1c2.2,0,3.5,2,3.5,3.9c0,0.5-0.2,0.7-0.7,0.7L-518.2,104.4L-518.2,104.4z M-513.8,103.4
		c0-1.1-0.7-2.5-2.1-2.5c-1.6-0.1-2.2,1.3-2.3,2.5H-513.8z"/>
	<path class="st1" d="M-511.8,100.9c-0.1-0.2-0.1-0.4-0.1-0.5c0-0.4,0.3-0.6,0.6-0.6c0.4,0,0.6,0.2,0.7,0.5l1.8,5.6l0,0l1.8-5.6
		c0.1-0.3,0.3-0.5,0.7-0.5c0.3,0,0.6,0.2,0.6,0.6c0,0.2,0,0.3-0.1,0.5l-2.3,6.5c-0.1,0.4-0.3,0.6-0.7,0.6c-0.4,0-0.6-0.2-0.7-0.6
		L-511.8,100.9z"/>
	<path class="st1" d="M-503.9,104.4c0,1.4,0.9,2.4,2.4,2.4c1.8,0,2.2-1.1,2.7-1.1c0.2,0,0.5,0.2,0.5,0.6c0,0.6-1.6,1.6-3.2,1.6
		c-2.6,0-3.7-2-3.7-4.1c0-2.2,1.4-4.1,3.6-4.1s3.5,2,3.5,3.9c0,0.5-0.2,0.7-0.7,0.7L-503.9,104.4L-503.9,104.4z M-499.5,103.4
		c0-1.1-0.7-2.5-2.1-2.5c-1.6-0.1-2.2,1.3-2.3,2.5H-499.5z"/>
	<path class="st1" d="M-495.6,107.3c0,0.4-0.3,0.7-0.7,0.7s-0.7-0.3-0.7-0.7V96.9c0-0.4,0.3-0.7,0.7-0.7s0.7,0.3,0.7,0.7V107.3z"/>
	<path class="st1" d="M-490.6,99.8c2.3,0,3.5,2,3.5,4.1s-1.3,4.1-3.5,4.1c-2.3,0-3.5-2-3.5-4.1C-494.1,101.7-492.9,99.8-490.6,99.8z
		 M-490.6,106.8c1.6,0,2.2-1.6,2.2-3s-0.6-3-2.2-3s-2.2,1.6-2.2,3C-492.8,105.2-492.2,106.8-490.6,106.8z"/>
	<path class="st1" d="M-485.6,100.5c0-0.4,0.3-0.7,0.7-0.7s0.7,0.3,0.7,0.7v0.4l0,0c0.4-0.7,1.1-1.1,2.1-1.1c2.2,0,3.4,2,3.4,4.1
		s-1.3,4.1-3.4,4.1c-1.1,0-1.8-0.6-2.1-1.1l0,0v3.5c0,0.4-0.3,0.7-0.7,0.7s-0.7-0.3-0.7-0.7V100.5z M-482.2,106.8
		c1.6,0,2.2-1.6,2.2-3s-0.6-3-2.2-3s-2.2,1.6-2.2,3C-484.4,105.2-483.9,106.8-482.2,106.8z"/>
	<path class="st1" d="M-473.5,100.5c0-0.4,0.3-0.7,0.7-0.7s0.7,0.3,0.7,0.7v0.4l0,0c0.4-0.7,1.1-1.1,2.1-1.1c2.2,0,3.4,2,3.4,4.1
		s-1.3,4.1-3.4,4.1c-1.1,0-1.8-0.6-2.1-1.1l0,0v3.5c0,0.4-0.3,0.7-0.7,0.7s-0.7-0.3-0.7-0.7V100.5z M-470.1,106.8
		c1.6,0,2.2-1.6,2.2-3s-0.6-3-2.2-3s-2.2,1.6-2.2,3C-472.3,105.2-471.7,106.8-470.1,106.8z"/>
	<path class="st1" d="M-464.3,104.4c0,1.4,0.9,2.4,2.4,2.4c1.8,0,2.2-1.1,2.7-1.1c0.2,0,0.5,0.2,0.5,0.6c0,0.6-1.6,1.6-3.2,1.6
		c-2.6,0-3.7-2-3.7-4.1c0-2.2,1.4-4.1,3.6-4.1s3.5,2,3.5,3.9c0,0.5-0.2,0.7-0.7,0.7L-464.3,104.4L-464.3,104.4z M-459.9,103.4
		c0-1.1-0.7-2.5-2.1-2.5c-1.6-0.1-2.2,1.3-2.3,2.5H-459.9z"/>
	<path class="st1" d="M-454.1,99.8c2.3,0,3.5,2,3.5,4.1s-1.3,4.1-3.5,4.1c-2.3,0-3.5-2-3.5-4.1C-457.6,101.7-456.4,99.8-454.1,99.8z
		 M-454.1,106.8c1.6,0,2.2-1.6,2.2-3s-0.6-3-2.2-3s-2.2,1.6-2.2,3C-456.3,105.2-455.7,106.8-454.1,106.8z"/>
	<path class="st1" d="M-449.1,100.5c0-0.4,0.3-0.7,0.7-0.7s0.7,0.3,0.7,0.7v0.4l0,0c0.4-0.7,1.1-1.1,2.1-1.1c2.2,0,3.4,2,3.4,4.1
		s-1.3,4.1-3.4,4.1c-1.1,0-1.8-0.6-2.1-1.1l0,0v3.5c0,0.4-0.3,0.7-0.7,0.7s-0.7-0.3-0.7-0.7V100.5z M-445.7,106.8
		c1.6,0,2.2-1.6,2.2-3s-0.6-3-2.2-3s-2.2,1.6-2.2,3C-447.9,105.2-447.3,106.8-445.7,106.8z"/>
	<path class="st1" d="M-439.4,107.3c0,0.4-0.3,0.7-0.7,0.7s-0.7-0.3-0.7-0.7V96.9c0-0.4,0.3-0.7,0.7-0.7s0.7,0.3,0.7,0.7V107.3z"/>
	<path class="st1" d="M-436.8,104.4c0,1.4,0.9,2.4,2.4,2.4c1.8,0,2.2-1.1,2.7-1.1c0.2,0,0.5,0.2,0.5,0.6c0,0.6-1.6,1.6-3.2,1.6
		c-2.6,0-3.7-2-3.7-4.1c0-2.2,1.4-4.1,3.6-4.1s3.5,2,3.5,3.9c0,0.5-0.2,0.7-0.7,0.7L-436.8,104.4L-436.8,104.4z M-432.4,103.4
		c0-1.1-0.7-2.5-2.1-2.5c-1.6-0.1-2.2,1.3-2.3,2.5H-432.4z"/>
</g>
<g>
	<path d="M33.5,91.8c0-0.5,0.3-0.8,0.7-0.8s0.7,0.3,0.7,0.8v4.7c0,1.5,0.7,2.3,2,2.3c1.4,0,2-0.8,2-2.3v-4.7c0-0.5,0.3-0.8,0.7-0.8
		s0.7,0.3,0.7,0.8v4.7c0,2.6-1.7,3.5-3.5,3.5s-3.5-0.9-3.5-3.5v-4.7H33.5z"/>
	<path d="M42.8,91.8c0-0.5,0.3-0.8,0.7-0.8s0.7,0.3,0.7,0.8v0.3l0,0c0.6-0.8,1.6-1.2,2.4-1.2c1.4,0,3.1,0.9,3.1,3.4v4.9
		c0,0.5-0.3,0.8-0.7,0.8s-0.7-0.3-0.7-0.8v-4.8c0-1.5-1.1-2.2-2-2.2c-1,0-2,0.6-2,2.2v4.8c0,0.5-0.3,0.8-0.7,0.8s-0.7-0.3-0.7-0.8
		L42.8,91.8L42.8,91.8z"/>
	<path d="M52.8,88.1c0.5,0,0.9,0.4,0.9,0.9s-0.4,0.9-0.9,0.9s-0.9-0.4-0.9-0.9S52.3,88.1,52.8,88.1z M53.5,99.3
		c0,0.5-0.3,0.8-0.7,0.8s-0.7-0.3-0.7-0.8v-7.5c0-0.5,0.3-0.8,0.7-0.8s0.7,0.3,0.7,0.8V99.3z"/>
	<path d="M55,92.3c-0.1-0.3-0.1-0.4-0.1-0.6c0-0.4,0.3-0.7,0.7-0.7c0.5,0,0.6,0.2,0.8,0.6l2,6.1l0,0l2-6.1c0.1-0.3,0.3-0.6,0.8-0.6
		c0.3,0,0.7,0.2,0.7,0.7c0,0.2-0.1,0.3-0.1,0.6l-2.5,7.1c-0.1,0.4-0.3,0.6-0.8,0.6s-0.6-0.2-0.8-0.6L55,92.3z"/>
	<path d="M64.1,96.1c0,1.5,1,2.7,2.6,2.7c1.9,0,2.4-1.2,3-1.2c0.3,0,0.5,0.2,0.5,0.6c0,0.7-1.8,1.8-3.5,1.8c-2.8,0-4.1-2.2-4.1-4.5
		c0-2.4,1.5-4.5,4-4.5c2.4,0,3.8,2.2,3.8,4.3c0,0.5-0.2,0.8-0.8,0.8C69.6,96.1,64.1,96.1,64.1,96.1z M69,95c0-1.3-0.7-2.7-2.3-2.7
		c-1.8-0.1-2.5,1.4-2.5,2.7H69z"/>
	<path d="M72.1,91.8c0-0.5,0.3-0.8,0.7-0.8s0.7,0.3,0.7,0.8v0.7l0,0c0.3-0.7,1.1-1.5,2-1.5c0.5,0,0.8,0.3,0.8,0.7
		c0,0.4-0.3,0.7-0.9,0.8c-0.9,0.1-1.9,0.8-1.9,2.5v4.2c0,0.5-0.3,0.8-0.7,0.8s-0.7-0.3-0.7-0.8V91.8z"/>
	<path d="M80.5,91c1.2,0,2.9,0.6,2.9,1.6c0,0.3-0.2,0.6-0.7,0.6c-0.6,0-0.9-0.9-2.3-0.9c-0.8,0-1.5,0.4-1.5,1.1
		c0,1.5,4.7,1.4,4.7,3.9c0,1.8-1.6,2.7-3.2,2.7c-1.9,0-3.3-0.9-3.3-1.7c0-0.4,0.3-0.7,0.6-0.7c0.6,0,1.2,1.1,2.8,1.1
		c1.1,0,1.7-0.6,1.7-1.2c0-1.7-4.7-1.6-4.7-4.1C77.5,91.9,79,91,80.5,91z"/>
	<path d="M86.1,88.1c0.5,0,0.9,0.4,0.9,0.9s-0.4,0.9-0.9,0.9s-0.9-0.4-0.9-0.9S85.6,88.1,86.1,88.1z M86.9,99.3
		c0,0.5-0.3,0.8-0.7,0.8s-0.7-0.3-0.7-0.8v-7.5c0-0.5,0.3-0.8,0.7-0.8s0.7,0.3,0.7,0.8V99.3z"/>
	<path d="M89.6,89.2c0-0.5,0.3-0.8,0.7-0.8c0.4,0,0.7,0.3,0.7,0.8v1.9h0.6c0.5,0,0.7,0.2,0.7,0.6s-0.2,0.6-0.7,0.6H91v6.9
		c0,0.5-0.3,0.8-0.7,0.8c-0.4,0-0.7-0.3-0.7-0.8v-6.9H89c-0.5,0-0.7-0.2-0.7-0.6s0.2-0.6,0.7-0.6h0.6V89.2z"/>
	<path d="M93.3,92.5c-0.2-0.5-0.2-0.6-0.2-0.8c0-0.4,0.3-0.6,0.7-0.6c0.4,0,0.6,0.2,0.7,0.5l2,6.1l0,0l2-6.1
		c0.1-0.3,0.3-0.5,0.7-0.5c0.3,0,0.7,0.2,0.7,0.6c0,0.2,0,0.3-0.2,0.8L96,103c-0.1,0.3-0.3,0.5-0.7,0.5c-0.3,0-0.7-0.2-0.7-0.6
		c0-0.2,0-0.3,0.2-0.8l0.9-2.5L93.3,92.5z"/>
	<path d="M109.5,91c2.5,0,3.9,2.2,3.9,4.5s-1.4,4.5-3.9,4.5s-3.9-2.2-3.9-4.5S107,91,109.5,91z M109.5,98.8c1.8,0,2.4-1.8,2.4-3.3
		s-0.6-3.3-2.4-3.3s-2.4,1.8-2.4,3.3C107.1,97.1,107.7,98.8,109.5,98.8z"/>
	<path d="M117.2,99.3c0,0.5-0.3,0.8-0.7,0.8s-0.7-0.3-0.7-0.8v-6.9h-0.6c-0.5,0-0.7-0.2-0.7-0.6s0.2-0.6,0.7-0.6h0.6v-2.1
		c0-1.3,0.9-1.9,1.9-1.9h0.4c0.4,0,0.8,0.2,0.8,0.6s-0.2,0.6-0.8,0.6h-0.4c-0.4,0-0.6,0.2-0.6,0.6v2.1h0.9c0.5,0,0.7,0.2,0.7,0.6
		s-0.2,0.6-0.7,0.6h-0.9L117.2,99.3L117.2,99.3z"/>
	<path d="M131.7,99.4c0,0.5-0.4,0.7-0.7,0.7s-0.7-0.2-0.7-0.7v-0.6l0,0c-0.6,0.9-1.5,1.3-2.4,1.3c-2.5,0-3.9-2.2-3.9-4.5
		s1.4-4.5,3.9-4.5c1,0,1.7,0.4,2.4,1.2l0,0v-0.5c0-0.5,0.4-0.7,0.7-0.7s0.7,0.2,0.7,0.7V99.4z M127.9,98.8c1.8,0,2.4-1.8,2.4-3.3
		s-0.6-3.3-2.4-3.3c-1.8,0-2.4,1.8-2.4,3.3C125.4,97.1,126.1,98.8,127.9,98.8z"/>
	<path d="M134,91.8c0-0.5,0.3-0.8,0.7-0.8s0.7,0.3,0.7,0.8v0.4l0,0c0.4-0.8,1.2-1.2,2.4-1.2c2.4,0,3.8,2.2,3.8,4.5s-1.4,4.5-3.8,4.5
		c-1.2,0-2-0.6-2.4-1.2l0,0v3.9c0,0.5-0.3,0.8-0.7,0.8s-0.7-0.3-0.7-0.8V91.8z M137.7,98.8c1.8,0,2.4-1.8,2.4-3.3s-0.6-3.3-2.4-3.3
		s-2.4,1.8-2.4,3.3C135.3,97.1,135.9,98.8,137.7,98.8z"/>
	<path d="M143.6,91.8c0-0.5,0.3-0.8,0.7-0.8s0.7,0.3,0.7,0.8v0.4l0,0c0.4-0.8,1.2-1.2,2.4-1.2c2.4,0,3.8,2.2,3.8,4.5
		s-1.4,4.5-3.8,4.5c-1.2,0-2-0.6-2.4-1.2l0,0v3.9c0,0.5-0.3,0.8-0.7,0.8s-0.7-0.3-0.7-0.8V91.8z M147.3,98.8c1.8,0,2.4-1.8,2.4-3.3
		s-0.6-3.3-2.4-3.3s-2.4,1.8-2.4,3.3C144.9,97.1,145.5,98.8,147.3,98.8z"/>
	<path d="M154.5,99.3c0,0.5-0.3,0.8-0.7,0.8s-0.7-0.3-0.7-0.8V87.9c0-0.5,0.3-0.8,0.7-0.8s0.7,0.3,0.7,0.8V99.3z"/>
	<path d="M157.5,88.1c0.5,0,0.9,0.4,0.9,0.9s-0.4,0.9-0.9,0.9s-0.9-0.4-0.9-0.9S157,88.1,157.5,88.1z M158.3,99.3
		c0,0.5-0.3,0.8-0.7,0.8s-0.7-0.3-0.7-0.8v-7.5c0-0.5,0.3-0.8,0.7-0.8s0.7,0.3,0.7,0.8V99.3z"/>
	<path d="M161.4,96.1c0,1.5,1,2.7,2.6,2.7c1.9,0,2.4-1.2,3-1.2c0.3,0,0.5,0.2,0.5,0.6c0,0.7-1.8,1.8-3.5,1.8c-2.8,0-4.1-2.2-4.1-4.5
		c0-2.4,1.5-4.5,4-4.5c2.4,0,3.8,2.2,3.8,4.3c0,0.5-0.2,0.8-0.8,0.8C166.9,96.1,161.4,96.1,161.4,96.1z M166.3,95
		c0-1.3-0.7-2.7-2.3-2.7c-1.8-0.1-2.5,1.4-2.5,2.7H166.3z"/>
	<path d="M175.3,98.9L175.3,98.9c-0.4,0.8-1.2,1.2-2.4,1.2c-2.4,0-3.8-2.2-3.8-4.5s1.4-4.5,3.8-4.5c1.2,0,2,0.6,2.4,1.2l0,0V88
		c0-0.5,0.3-0.8,0.7-0.8s0.7,0.3,0.7,0.8v11.4c0,0.5-0.3,0.8-0.7,0.8s-0.7-0.3-0.7-0.8V98.9z M173,92.3c-1.8,0-2.4,1.8-2.4,3.3
		s0.6,3.3,2.4,3.3c1.8,0,2.4-1.8,2.4-3.3C175.4,94.1,174.8,92.3,173,92.3z"/>
	<path d="M186.3,91c1.2,0,2.9,0.6,2.9,1.6c0,0.3-0.2,0.6-0.7,0.6c-0.6,0-0.9-0.9-2.3-0.9c-0.8,0-1.5,0.4-1.5,1.1
		c0,1.5,4.7,1.4,4.7,3.9c0,1.8-1.6,2.7-3.2,2.7c-1.9,0-3.3-0.9-3.3-1.7c0-0.4,0.3-0.7,0.6-0.7c0.6,0,1.2,1.1,2.8,1.1
		c1.1,0,1.7-0.6,1.7-1.2c0-1.7-4.7-1.6-4.7-4.1C183.3,91.9,184.9,91,186.3,91z"/>
	<path d="M194.8,91c1.5,0,2.4,0.5,2.4,1.1c0,0.3-0.2,0.6-0.6,0.6c-0.6,0-0.8-0.5-1.8-0.5c-1.8,0-2.5,1.8-2.5,3.3s0.7,3.3,2.5,3.3
		c1,0,1.3-0.5,1.8-0.5c0.3,0,0.6,0.2,0.6,0.6c0,0.5-0.8,1.1-2.3,1.1c-2.7,0-4-2.2-4-4.5S192.2,91,194.8,91z"/>
	<path d="M199.7,88.1c0.5,0,0.9,0.4,0.9,0.9s-0.4,0.9-0.9,0.9s-0.9-0.4-0.9-0.9S199.2,88.1,199.7,88.1z M200.4,99.3
		c0,0.5-0.3,0.8-0.7,0.8s-0.7-0.3-0.7-0.8v-7.5c0-0.5,0.3-0.8,0.7-0.8s0.7,0.3,0.7,0.8V99.3z"/>
	<path d="M203.6,96.1c0,1.5,1,2.7,2.6,2.7c1.9,0,2.4-1.2,3-1.2c0.3,0,0.5,0.2,0.5,0.6c0,0.7-1.8,1.8-3.5,1.8c-2.8,0-4.1-2.2-4.1-4.5
		c0-2.4,1.5-4.5,4-4.5c2.4,0,3.8,2.2,3.8,4.3c0,0.5-0.2,0.8-0.8,0.8C209.1,96.1,203.6,96.1,203.6,96.1z M208.4,95
		c0-1.3-0.7-2.7-2.3-2.7c-1.8-0.1-2.5,1.4-2.5,2.7H208.4z"/>
	<path d="M211.6,91.8c0-0.5,0.3-0.8,0.7-0.8s0.7,0.3,0.7,0.8v0.3l0,0c0.6-0.8,1.6-1.2,2.4-1.2c1.4,0,3.1,0.9,3.1,3.4v4.9
		c0,0.5-0.3,0.8-0.7,0.8s-0.7-0.3-0.7-0.8v-4.8c0-1.5-1.1-2.2-2-2.2c-1,0-2,0.6-2,2.2v4.8c0,0.5-0.3,0.8-0.7,0.8s-0.7-0.3-0.7-0.8
		v-7.4H211.6z"/>
	<path d="M224.5,91c1.5,0,2.4,0.5,2.4,1.1c0,0.3-0.2,0.6-0.6,0.6c-0.6,0-0.8-0.5-1.8-0.5c-1.8,0-2.5,1.8-2.5,3.3s0.7,3.3,2.5,3.3
		c1,0,1.3-0.5,1.8-0.5c0.3,0,0.6,0.2,0.6,0.6c0,0.5-0.8,1.1-2.3,1.1c-2.7,0-4-2.2-4-4.5C220.5,93.2,221.8,91,224.5,91z"/>
	<path d="M229.5,96.1c0,1.5,1,2.7,2.6,2.7c1.9,0,2.4-1.2,3-1.2c0.3,0,0.5,0.2,0.5,0.6c0,0.7-1.8,1.8-3.5,1.8c-2.8,0-4.1-2.2-4.1-4.5
		c0-2.4,1.5-4.5,4-4.5c2.4,0,3.8,2.2,3.8,4.3c0,0.5-0.2,0.8-0.8,0.8C235,96.1,229.5,96.1,229.5,96.1z M234.4,95
		c0-1.3-0.7-2.7-2.3-2.7c-1.8-0.1-2.5,1.4-2.5,2.7H234.4z"/>
	<path d="M240.4,91c1.2,0,2.9,0.6,2.9,1.6c0,0.3-0.2,0.6-0.7,0.6c-0.6,0-0.9-0.9-2.3-0.9c-0.8,0-1.5,0.4-1.5,1.1
		c0,1.5,4.7,1.4,4.7,3.9c0,1.8-1.6,2.7-3.2,2.7c-1.9,0-3.3-0.9-3.3-1.7c0-0.4,0.3-0.7,0.6-0.7c0.6,0,1.2,1.1,2.8,1.1
		c1.1,0,1.7-0.6,1.7-1.2c0-1.7-4.7-1.6-4.7-4.1C237.4,91.9,238.9,91,240.4,91z"/>
</g>
<path d="M33.5,38.4c0-3.2,2-5.3,4.8-5.3s4.8,2.1,4.8,5.3v13h0.1c2-2.5,5.7-3.3,8.7-3.3C59.4,48.1,65,52.9,65,61v18.3
	c0,3.2-2,5.3-4.8,5.3s-4.8-2.1-4.8-5.3V62.6c0-4.4-2.8-6.6-6.2-6.6c-3.9,0-6.1,2.9-6.1,6.6v16.7c0,3.2-2,5.3-4.8,5.3
	s-4.8-2.1-4.8-5.3C33.5,79.3,33.5,38.4,33.5,38.4z"/>
<path d="M104.6,66.6c0,10-6.8,18.4-17.1,18.4s-17.1-8.4-17.1-18.4c0-9.7,7-18.5,17.1-18.5C97.5,48.1,104.6,56.9,104.6,66.6z
	 M79.9,66.6c0,4.6,2.4,9.6,7.6,9.6s7.6-5,7.6-9.6s-2.3-9.8-7.6-9.8C82.2,56.8,79.9,62,79.9,66.6z"/>
<path d="M107.6,56.8c-0.7-1.9-1-3.1-1-4.5c0-2.1,2-3.8,4.8-3.8c2.3,0,4,1.5,4.5,3.8l5.5,18.2h0.1l5.6-17.8c0.7-2.6,2.1-4.2,4.8-4.2
	c2.8,0,4.1,1.6,4.8,4.2l5.6,17.8h0.1l5.5-18.2c0.5-2.3,2.2-3.8,4.5-3.8c2.8,0,4.8,1.7,4.8,4.6c0,1.1-0.5,2.1-0.9,3.6l-8.2,23
	c-1,2.8-2.7,4.8-5.8,4.8c-2.9,0-4.6-1.7-5.5-4.4L132,64.7h-0.1L127,80.1c-0.9,2.8-2.6,4.4-5.5,4.4c-3.1,0-4.8-2.1-5.8-4.8
	L107.6,56.8z"/>
<path d="M169.5,69.7c0.7,4.7,4.6,6.9,9,6.9c4.9,0,8.3-3.8,10.8-3.8c2.1,0,3.9,2.1,3.9,4.1c0,4.1-8.5,8.1-15.6,8.1
	c-10.7,0-17.9-7.8-17.9-18.4c0-9.7,7-18.5,17.1-18.5c10.3,0,17.2,9.4,17.2,17.4c0,2.9-1.3,4.2-4.2,4.2
	C189.8,69.7,169.5,69.7,169.5,69.7z M184.5,63.3c-0.5-4.2-3.2-7.3-7.6-7.3c-4.2,0-7.1,3.3-7.6,7.3H184.5z"/>
<path d="M218.9,59.2c-1.8,0-5.4-2.8-8.6-2.8c-1.7,0-3.3,0.8-3.3,2.7c0,4.4,16.6,3.8,16.6,14.7c0,6.4-5.4,11.2-13.6,11.2
	c-5.4,0-13.3-3.1-13.3-7.4c0-1.5,1.5-4.2,4.1-4.2c3.7,0,5.4,3.3,9.9,3.3c2.9,0,3.8-0.9,3.8-2.7c0-4.4-16.6-3.7-16.6-14.7
	c0-6.6,5.4-11.1,12.9-11.1c4.7,0,11.9,2.2,11.9,6.9C222.8,57.2,221.1,59.2,218.9,59.2z"/>
<path d="M232,57.2h-2.1c-2.6,0-4.2-1.6-4.2-4.2c0-2.4,1.8-4.2,4.2-4.2h2.1v-5.7c0-3.2,2-5.3,4.8-5.3s4.8,2.1,4.8,5.3v5.7h2.7
	c2.5,0,4.6,1.1,4.6,4.2c0,3-2.1,4.2-4.6,4.2h-2.7v22c0,3.2-2,5.3-4.8,5.3s-4.8-2.1-4.8-5.3V57.2z"/>
<path class="st2" d="M138.7,44l6.3-19.4c0.1-0.4-0.1-0.9-0.5-1s-0.9,0.1-1,0.5L137,44H138.7z"/>
<path class="st2" d="M118,102.8l-4.9,15.2c-0.1,0.4,0.1,0.9,0.5,1c0.1,0,0.2,0,0.2,0c0.3,0,0.7-0.2,0.8-0.6l5.1-15.7L118,102.8
	L118,102.8z"/>
</svg>
